<svg width="600" height="600" viewBox="0 0 600 600" fill="none" xmlns="http://www.w3.org/2000/svg">
<path d="M300 0L307.993 185.689L341.752 2.91959L323.825 187.914L382.691 11.6215L339.192 192.321L422.021 25.9364L353.797 198.823L458.976 45.5856L367.354 207.295L492.836 70.1867L379.601 217.571L522.943 99.2608L390.298 229.451L548.711 132.242L399.238 242.705L569.638 168.489L406.246 257.074L585.317 207.295L411.186 272.278L595.442 247.906L413.962 288.022L599.817 289.53L414.52 303.999L598.357 331.359L412.849 319.898L591.089 372.577L408.981 335.41L578.155 412.382L402.993 350.233L559.808 450L394.999 364.078L536.403 484.698L385.157 376.676L508.398 515.802L373.657 387.781L476.336 542.705L360.723 397.178L440.841 564.884L346.608 404.683L402.606 581.908L331.585 410.151L362.374 593.444L315.948 413.475L320.927 599.269L300 414.59L279.073 599.269L284.052 413.475L237.626 593.444L268.415 410.151L197.394 581.908L253.392 404.683L159.159 564.884L239.277 397.178L123.664 542.705L226.343 387.781L91.6025 515.802L214.843 376.676L63.5968 484.698L205.001 364.078L40.1924 450L197.007 350.233L21.8448 412.382L191.019 335.41L8.91129 372.577L187.151 319.898L1.64343 331.359L185.48 303.999L0.182739 289.53L186.038 288.022L4.55768 247.906L188.814 272.278L14.683 207.295L193.754 257.074L30.3618 168.489L200.762 242.705L51.2887 132.242L209.702 229.451L77.0565 99.2608L220.399 217.571L107.164 70.1867L232.646 207.295L141.024 45.5856L246.203 198.823L177.979 25.9364L260.808 192.321L217.309 11.6215L276.175 187.914L258.248 2.91959L292.007 185.689L300 0Z" fill="#00C2FF"/>
</svg>
