<svg width="1541" height="600" viewBox="0 0 1541 600" fill="none" xmlns="http://www.w3.org/2000/svg">
<g filter="url(#filter0_b_0_1)">
<path d="M719.83 332.43C710.83 332.43 702.73 330.72 695.53 327.3C688.51 323.7 682.93 318.84 678.79 312.72C674.65 306.6 672.58 299.76 672.58 292.2C672.58 282.66 675.01 275.1 679.87 269.52C684.91 263.94 693.1 259.98 704.44 257.64C715.96 255.12 731.62 253.86 751.42 253.86H760.06V245.49C760.06 234.33 757.72 226.32 753.04 221.46C748.54 216.42 741.25 213.9 731.17 213.9C723.25 213.9 715.6 215.07 708.22 217.41C700.84 219.57 693.28 223.17 685.54 228.21L677.98 212.28C684.82 207.42 693.1 203.55 702.82 200.67C712.72 197.79 722.17 196.35 731.17 196.35C748.09 196.35 760.6 200.49 768.7 208.77C776.98 217.05 781.12 229.92 781.12 247.38V330H760.6V307.32C757.18 315.06 751.87 321.18 744.67 325.68C737.65 330.18 729.37 332.43 719.83 332.43ZM723.34 315.96C734.14 315.96 742.96 312.27 749.8 304.89C756.64 297.33 760.06 287.79 760.06 276.27V268.17H751.69C737.11 268.17 725.59 268.89 717.13 270.33C708.85 271.59 703 273.93 699.58 277.35C696.34 280.59 694.72 285.09 694.72 290.85C694.72 298.23 697.24 304.26 702.28 308.94C707.5 313.62 714.52 315.96 723.34 315.96ZM852.474 332.43C842.214 332.43 832.494 330.99 823.314 328.11C814.134 325.23 806.574 321.18 800.634 315.96L807.654 300.57C814.134 305.79 821.244 309.66 828.984 312.18C836.904 314.52 844.914 315.69 853.014 315.69C863.274 315.69 871.014 313.8 876.234 310.02C881.454 306.24 884.064 301.11 884.064 294.63C884.064 289.59 882.354 285.63 878.934 282.75C875.514 279.69 870.114 277.35 862.734 275.73L838.164 270.33C815.844 265.47 804.684 253.95 804.684 235.77C804.684 223.89 809.364 214.35 818.724 207.15C828.264 199.95 840.684 196.35 855.984 196.35C864.984 196.35 873.534 197.79 881.634 200.67C889.914 203.37 896.754 207.42 902.154 212.82L894.864 228.21C889.644 223.35 883.524 219.66 876.504 217.14C869.664 214.44 862.824 213.09 855.984 213.09C845.904 213.09 838.254 215.07 833.034 219.03C827.814 222.99 825.204 228.21 825.204 234.69C825.204 244.77 831.864 251.25 845.184 254.13L869.754 259.26C881.274 261.78 890.004 265.83 895.944 271.41C901.884 276.81 904.854 284.19 904.854 293.55C904.854 305.61 900.084 315.15 890.544 322.17C881.004 329.01 868.314 332.43 852.474 332.43ZM976.016 332.43C960.536 332.43 948.926 328.38 941.186 320.28C933.446 312 929.576 300.12 929.576 284.64V215.79H903.926V198.78H929.576V158.55H951.446V198.78H993.026V215.79H951.446V282.48C951.446 292.74 953.606 300.57 957.926 305.97C962.246 311.19 969.266 313.8 978.986 313.8C981.866 313.8 984.746 313.44 987.626 312.72C990.506 312 993.116 311.28 995.456 310.56L999.236 327.3C996.896 328.56 993.476 329.73 988.976 330.81C984.476 331.89 980.156 332.43 976.016 332.43ZM1004.26 330V198.78H1025.59V222.27C1032.61 206.43 1047.01 197.7 1068.79 196.08L1076.62 195.27L1078.24 214.17L1064.47 215.79C1052.05 216.87 1042.6 220.83 1036.12 227.67C1029.64 234.33 1026.4 243.51 1026.4 255.21V330H1004.26ZM1127.52 332.43C1118.52 332.43 1110.42 330.72 1103.22 327.3C1096.2 323.7 1090.62 318.84 1086.48 312.72C1082.34 306.6 1080.27 299.76 1080.27 292.2C1080.27 282.66 1082.7 275.1 1087.56 269.52C1092.6 263.94 1100.79 259.98 1112.13 257.64C1123.65 255.12 1139.31 253.86 1159.11 253.86H1167.75V245.49C1167.75 234.33 1165.41 226.32 1160.73 221.46C1156.23 216.42 1148.94 213.9 1138.86 213.9C1130.94 213.9 1123.29 215.07 1115.91 217.41C1108.53 219.57 1100.97 223.17 1093.23 228.21L1085.67 212.28C1092.51 207.42 1100.79 203.55 1110.51 200.67C1120.41 197.79 1129.86 196.35 1138.86 196.35C1155.78 196.35 1168.29 200.49 1176.39 208.77C1184.67 217.05 1188.81 229.92 1188.81 247.38V330H1168.29V307.32C1164.87 315.06 1159.56 321.18 1152.36 325.68C1145.34 330.18 1137.06 332.43 1127.52 332.43ZM1131.03 315.96C1141.83 315.96 1150.65 312.27 1157.49 304.89C1164.33 297.33 1167.75 287.79 1167.75 276.27V268.17H1159.38C1144.8 268.17 1133.28 268.89 1124.82 270.33C1116.54 271.59 1110.69 273.93 1107.27 277.35C1104.03 280.59 1102.41 285.09 1102.41 290.85C1102.41 298.23 1104.93 304.26 1109.97 308.94C1115.19 313.62 1122.21 315.96 1131.03 315.96ZM1271.5 332.43C1258.36 332.43 1247.02 329.64 1237.48 324.06C1227.94 318.3 1220.56 310.29 1215.34 300.03C1210.3 289.59 1207.78 277.44 1207.78 263.58C1207.78 242.7 1213.45 226.32 1224.79 214.44C1236.13 202.38 1251.7 196.35 1271.5 196.35C1279.6 196.35 1287.61 197.79 1295.53 200.67C1303.45 203.55 1310.02 207.6 1315.24 212.82L1307.68 228.75C1302.46 223.71 1296.7 220.02 1290.4 217.68C1284.28 215.34 1278.43 214.17 1272.85 214.17C1259.17 214.17 1248.64 218.49 1241.26 227.13C1233.88 235.59 1230.19 247.83 1230.19 263.85C1230.19 279.51 1233.88 291.93 1241.26 301.11C1248.64 310.11 1259.17 314.61 1272.85 314.61C1278.43 314.61 1284.28 313.44 1290.4 311.1C1296.7 308.76 1302.46 304.98 1307.68 299.76L1315.24 315.69C1310.02 320.91 1303.36 325.05 1295.26 328.11C1287.34 330.99 1279.42 332.43 1271.5 332.43ZM1371.64 332.43C1361.38 332.43 1351.66 330.99 1342.48 328.11C1333.3 325.23 1325.74 321.18 1319.8 315.96L1326.82 300.57C1333.3 305.79 1340.41 309.66 1348.15 312.18C1356.07 314.52 1364.08 315.69 1372.18 315.69C1382.44 315.69 1390.18 313.8 1395.4 310.02C1400.62 306.24 1403.23 301.11 1403.23 294.63C1403.23 289.59 1401.52 285.63 1398.1 282.75C1394.68 279.69 1389.28 277.35 1381.9 275.73L1357.33 270.33C1335.01 265.47 1323.85 253.95 1323.85 235.77C1323.85 223.89 1328.53 214.35 1337.89 207.15C1347.43 199.95 1359.85 196.35 1375.15 196.35C1384.15 196.35 1392.7 197.79 1400.8 200.67C1409.08 203.37 1415.92 207.42 1421.32 212.82L1414.03 228.21C1408.81 223.35 1402.69 219.66 1395.67 217.14C1388.83 214.44 1381.99 213.09 1375.15 213.09C1365.07 213.09 1357.42 215.07 1352.2 219.03C1346.98 222.99 1344.37 228.21 1344.37 234.69C1344.37 244.77 1351.03 251.25 1364.35 254.13L1388.92 259.26C1400.44 261.78 1409.17 265.83 1415.11 271.41C1421.05 276.81 1424.02 284.19 1424.02 293.55C1424.02 305.61 1419.25 315.15 1409.71 322.17C1400.17 329.01 1387.48 332.43 1371.64 332.43ZM1488.13 332.43C1477.87 332.43 1468.15 330.99 1458.97 328.11C1449.79 325.23 1442.23 321.18 1436.29 315.96L1443.31 300.57C1449.79 305.79 1456.9 309.66 1464.64 312.18C1472.56 314.52 1480.57 315.69 1488.67 315.69C1498.93 315.69 1506.67 313.8 1511.89 310.02C1517.11 306.24 1519.72 301.11 1519.72 294.63C1519.72 289.59 1518.01 285.63 1514.59 282.75C1511.17 279.69 1505.77 277.35 1498.39 275.73L1473.82 270.33C1451.5 265.47 1440.34 253.95 1440.34 235.77C1440.34 223.89 1445.02 214.35 1454.38 207.15C1463.92 199.95 1476.34 196.35 1491.64 196.35C1500.64 196.35 1509.19 197.79 1517.29 200.67C1525.57 203.37 1532.41 207.42 1537.81 212.82L1530.52 228.21C1525.3 223.35 1519.18 219.66 1512.16 217.14C1505.32 214.44 1498.48 213.09 1491.64 213.09C1481.56 213.09 1473.91 215.07 1468.69 219.03C1463.47 222.99 1460.86 228.21 1460.86 234.69C1460.86 244.77 1467.52 251.25 1480.84 254.13L1505.41 259.26C1516.93 261.78 1525.66 265.83 1531.6 271.41C1537.54 276.81 1540.51 284.19 1540.51 293.55C1540.51 305.61 1535.74 315.15 1526.2 322.17C1516.66 329.01 1503.97 332.43 1488.13 332.43Z" fill="white"/>
</g>
<path d="M300 0L307.993 185.689L341.752 2.91959L323.825 187.914L382.691 11.6215L339.192 192.321L422.021 25.9364L353.797 198.823L458.976 45.5856L367.354 207.295L492.836 70.1867L379.601 217.571L522.943 99.2608L390.298 229.451L548.711 132.242L399.238 242.705L569.638 168.489L406.246 257.074L585.317 207.295L411.186 272.278L595.442 247.906L413.962 288.022L599.817 289.53L414.52 303.999L598.357 331.359L412.849 319.898L591.089 372.577L408.981 335.41L578.155 412.382L402.993 350.233L559.808 450L394.999 364.078L536.403 484.698L385.157 376.676L508.398 515.802L373.657 387.781L476.336 542.705L360.723 397.178L440.841 564.884L346.608 404.683L402.606 581.908L331.585 410.151L362.374 593.444L315.948 413.475L320.927 599.269L300 414.59L279.073 599.269L284.052 413.475L237.626 593.444L268.415 410.151L197.394 581.908L253.392 404.683L159.159 564.884L239.277 397.178L123.664 542.705L226.343 387.781L91.6025 515.802L214.843 376.676L63.5968 484.698L205.001 364.078L40.1924 450L197.007 350.233L21.8448 412.382L191.019 335.41L8.91129 372.577L187.151 319.898L1.64343 331.359L185.48 303.999L0.182739 289.53L186.038 288.022L4.55768 247.906L188.814 272.278L14.683 207.295L193.754 257.074L30.3618 168.489L200.762 242.705L51.2887 132.242L209.702 229.451L77.0565 99.2608L220.399 217.571L107.164 70.1867L232.646 207.295L141.024 45.5856L246.203 198.823L177.979 25.9364L260.808 192.321L217.309 11.6215L276.175 187.914L258.248 2.91959L292.007 185.689L300 0Z" fill="#00C2FF"/>
<defs>
<filter id="filter0_b_0_1" x="668.58" y="154.55" width="875.934" height="181.88" filterUnits="userSpaceOnUse" color-interpolation-filters="sRGB">
<feFlood flood-opacity="0" result="BackgroundImageFix"/>
<feGaussianBlur in="BackgroundImageFix" stdDeviation="2"/>
<feComposite in2="SourceAlpha" operator="in" result="effect1_backgroundBlur_0_1"/>
<feBlend mode="normal" in="SourceGraphic" in2="effect1_backgroundBlur_0_1" result="shape"/>
</filter>
</defs>
</svg>
